<svg xmlns="http://www.w3.org/2000/svg" version="1.1" xmlns:xlink="http://www.w3.org/1999/xlink" xmlns:svgjs="http://svgjs.dev/svgjs" width="1980" height="560" preserveAspectRatio="none" viewBox="0 0 1980 560">
    <g mask="url(&quot;#SvgjsMask1005&quot;)" fill="none">
        <rect width="1980" height="560" x="0" y="0" fill="#0e2a47"></rect>
        <path d="M -468.03376054321905,297 C -336.03,284.8 -72.03,215.2 191.96623945678098,236 C 455.97,256.8 587.97,419.8 851.966239456781,401 C 1115.97,382.2 1247.97,146 1511.966239456781,142 C 1775.97,138 2078.36,369.4 2171.966239456781,381 C 2265.57,392.6 2018.39,236.2 1980,200" stroke="rgba(51, 121, 194, 0.58)" stroke-width="2"></path>
        <path d="M -885.0568244448032,195 C -753.06,229 -489.06,374.8 -225.05682444480314,365 C 38.94,355.2 170.94,124.4 434.94317555519683,146 C 698.94,167.6 830.94,473.4 1094.9431755551968,473 C 1358.94,472.6 1577.93,164.6 1754.9431755551968,144 C 1931.95,123.4 1934.99,324.8 1980,370" stroke="rgba(51, 121, 194, 0.58)" stroke-width="2"></path>
        <path d="M -971.6074509853809,406 C -839.61,352 -575.61,130.8 -311.60745098538086,136 C -47.61,141.2 84.39,439.6 348.39254901461914,432 C 612.39,424.4 744.39,116 1008.3925490146191,98 C 1272.39,80 1474.07,348.4 1668.3925490146191,342 C 1862.71,335.6 1917.68,121.2 1980,66" stroke="rgba(51, 121, 194, 0.58)" stroke-width="2"></path>
        <path d="M -1290.6498391275463,175 C -1158.65,215.6 -894.65,398 -630.6498391275463,378 C -366.65,358 -234.65,68 29.35016087245367,75 C 293.35,82 425.35,391.8 689.3501608724537,413 C 953.35,434.2 1091.22,166.2 1349.3501608724537,181 C 1607.48,195.8 1853.87,425.8 1980,487" stroke="rgba(51, 121, 194, 0.58)" stroke-width="2"></path>
    </g>
    <defs>
        <mask id="SvgjsMask1005">
            <rect width="1980" height="560" fill="#ffffff"></rect>
        </mask>
    </defs>
</svg>