<svg xmlns="http://www.w3.org/2000/svg" version="1.1" xmlns:xlink="http://www.w3.org/1999/xlink" xmlns:svgjs="http://svgjs.dev/svgjs" width="1980" height="800" preserveAspectRatio="none" viewBox="0 0 1980 800">
    <g mask="url(&quot;#SvgjsMask1004&quot;)" fill="none">
        <rect width="1980" height="800" x="0" y="0" fill="rgba(198, 173, 173, 1)"></rect>
        <path d="M 0,241 C 79.2,205.2 237.6,36.6 396,62 C 554.4,87.4 633.6,353.8 792,368 C 950.4,382.2 1029.6,146.8 1188,133 C 1346.4,119.2 1425.6,289 1584,299 C 1742.4,309 1900.8,206.2 1980,183L1980 800L0 800z" fill="rgba(167, 104, 105, 1)"></path>
        <path d="M 0,703 C 132,662.4 396,492.6 660,500 C 924,507.4 1056,730.8 1320,740 C 1584,749.2 1848,584.8 1980,546L1980 800L0 800z" fill="rgba(198, 173, 173, 1)"></path>
    </g>
    <defs>
        <mask id="SvgjsMask1004">
            <rect width="1980" height="800" fill="#ffffff"></rect>
        </mask>
    </defs>
</svg>