<svg xmlns="http://www.w3.org/2000/svg" version="1.1" xmlns:xlink="http://www.w3.org/1999/xlink" xmlns:svgjs="http://svgjs.dev/svgjs" width="1440" height="560" preserveAspectRatio="none" viewBox="0 0 1440 560">
    <g mask="url(&quot;#SvgjsMask1000&quot;)" fill="none">
        <rect width="1440" height="560" x="0" y="0" fill="#0e2a47"></rect>
        <path d="M -861.0856160095714,202 C -765.09,247.4 -573.09,442 -381.08561600957137,429 C -189.09,416 -93.09,138.2 98.91438399042863,137 C 290.91,135.8 386.91,406.2 578.9143839904286,423 C 770.91,439.8 886.7,241 1058.9143839904286,221 C 1231.13,201 1363.78,302.6 1440,323" stroke="rgba(51, 121, 194, 0.58)" stroke-width="2"></path>
        <path d="M -765.197727473902,120 C -669.2,166.6 -477.2,349.6 -285.197727473902,353 C -93.2,356.4 2.8,149.6 194.80227252609802,137 C 386.8,124.4 482.8,286 674.802272526098,290 C 866.8,294 1001.76,125.2 1154.802272526098,157 C 1307.84,188.8 1382.96,390.6 1440,449" stroke="rgba(51, 121, 194, 0.58)" stroke-width="2"></path>
        <path d="M -407.95662294486345,63 C -311.96,136.8 -119.96,415.4 72.04337705513655,432 C 264.04,448.6 360.04,153.4 552.0433770551365,146 C 744.04,138.6 840.04,377.8 1032.0433770551365,395 C 1224.04,412.2 1430.45,252.8 1512.0433770551365,232 C 1593.63,211.2 1454.41,279.2 1440,291" stroke="rgba(51, 121, 194, 0.58)" stroke-width="2"></path>
        <path d="M -18.64570327145924,211 C 77.35,240 269.35,365 461.35429672854076,356 C 653.35,347 749.35,136.6 941.3542967285407,166 C 1133.35,195.4 1229.35,504.4 1421.3542967285407,503 C 1613.35,501.6 1897.63,194.6 1901.3542967285407,159 C 1905.08,123.4 1532.27,291.8 1440,325" stroke="rgba(51, 121, 194, 0.58)" stroke-width="2"></path>
    </g>
    <defs>
        <mask id="SvgjsMask1000">
            <rect width="1440" height="560" fill="#ffffff"></rect>
        </mask>
    </defs>
</svg>