<svg xmlns="http://www.w3.org/2000/svg" version="1.1" xmlns:xlink="http://www.w3.org/1999/xlink" xmlns:svgjs="http://svgjs.dev/svgjs" width="1440" height="200" preserveAspectRatio="none" viewBox="0 0 1440 200">
    <g mask="url(&quot;#SvgjsMask1072&quot;)" fill="none">
        <rect width="1440" height="200" x="0" y="0" fill="rgba(81, 46, 95, 1)"></rect>
        <path d="M0,336.781C66.917,342.894,144.185,347.206,194.545,302.719C244.606,258.496,225.636,176.436,251.317,114.773C275.747,56.113,346.79,14.249,341.04,-49.034C335.302,-112.179,266.27,-146.866,223.307,-193.496C181.834,-238.509,151.012,-297.391,93.338,-317.881C34.586,-338.754,-29.673,-322.366,-89.441,-304.608C-149.054,-286.896,-207.611,-262.164,-249.352,-216.065C-291.592,-169.415,-322.724,-109.396,-323.18,-46.466C-323.615,13.593,-277.559,60.738,-251.748,114.97C-226.434,168.158,-217.165,230.202,-172.968,269.143C-125.558,310.915,-62.925,331.032,0,336.781" fill="#351e3e"></path>
        <path d="M1440 649.9300000000001C1522.766 649.8779999999999 1579.496 569.855 1646.216 520.879 1708.431 475.209 1770.554 433.544 1817.857 372.56100000000004 1876.349 297.154 1967.998 220.474 1952.245 126.35 1936.429 31.849999999999994 1811.5720000000001 4.602000000000004 1744.775-64.089 1683.141-127.471 1654.9569999999999-222.58499999999998 1575.412-261.17 1490.584-302.317 1391.627-297.709 1298.96-280.339 1199.131-261.626 1093.782-234.387 1026.52-158.28300000000002 959.05-81.94400000000002 941.3109999999999 26.016999999999996 938.193 127.851 935.298 222.405 952.717 320.952 1009.5319999999999 396.58799999999997 1061.9189999999999 466.328 1158.446 476.896 1233.618 521.137 1304.949 563.117 1357.233 649.982 1440 649.9300000000001" fill="#6d3e80"></path>
    </g>
    <defs>
        <mask id="SvgjsMask1072">
            <rect width="1440" height="200" fill="#ffffff"></rect>
        </mask>
    </defs>
</svg>