<svg xmlns="http://www.w3.org/2000/svg" version="1.1" xmlns:xlink="http://www.w3.org/1999/xlink" xmlns:svgjs="http://svgjs.dev/svgjs" width="1980" height="250" preserveAspectRatio="none" viewBox="0 0 1980 250">
    <g mask="url(&quot;#SvgjsMask1141&quot;)" fill="none">
        <rect width="1980" height="250" x="0" y="0" fill="rgba(223, 181, 182, 1)"></rect>
        <path d="M1182 139L1181 42" stroke-width="6" stroke="url(&quot;#SvgjsLinearGradient1142&quot;)" stroke-linecap="round" class="Down"></path>
        <path d="M1613 101L1612 226" stroke-width="10" stroke="url(&quot;#SvgjsLinearGradient1142&quot;)" stroke-linecap="round" class="Down"></path>
        <path d="M1037 105L1036 271" stroke-width="8" stroke="url(&quot;#SvgjsLinearGradient1143&quot;)" stroke-linecap="round" class="Up"></path>
        <path d="M655 11L654 -79" stroke-width="10" stroke="url(&quot;#SvgjsLinearGradient1143&quot;)" stroke-linecap="round" class="Up"></path>
        <path d="M1356 219L1355 150" stroke-width="6" stroke="url(&quot;#SvgjsLinearGradient1142&quot;)" stroke-linecap="round" class="Down"></path>
        <path d="M326 219L325 118" stroke-width="8" stroke="url(&quot;#SvgjsLinearGradient1142&quot;)" stroke-linecap="round" class="Down"></path>
        <path d="M1292 175L1291 326" stroke-width="10" stroke="url(&quot;#SvgjsLinearGradient1143&quot;)" stroke-linecap="round" class="Up"></path>
        <path d="M768 222L767 330" stroke-width="10" stroke="url(&quot;#SvgjsLinearGradient1143&quot;)" stroke-linecap="round" class="Up"></path>
        <path d="M352 41L351 -57" stroke-width="6" stroke="url(&quot;#SvgjsLinearGradient1143&quot;)" stroke-linecap="round" class="Up"></path>
        <path d="M1215 204L1214 308" stroke-width="6" stroke="url(&quot;#SvgjsLinearGradient1143&quot;)" stroke-linecap="round" class="Up"></path>
        <path d="M560 143L559 -5" stroke-width="6" stroke="url(&quot;#SvgjsLinearGradient1143&quot;)" stroke-linecap="round" class="Up"></path>
        <path d="M1661 46L1660 -46" stroke-width="6" stroke="url(&quot;#SvgjsLinearGradient1143&quot;)" stroke-linecap="round" class="Up"></path>
        <path d="M1925 220L1924 54" stroke-width="10" stroke="url(&quot;#SvgjsLinearGradient1142&quot;)" stroke-linecap="round" class="Down"></path>
        <path d="M1186 31L1185 153" stroke-width="6" stroke="url(&quot;#SvgjsLinearGradient1142&quot;)" stroke-linecap="round" class="Down"></path>
        <path d="M1639 96L1638 -14" stroke-width="10" stroke="url(&quot;#SvgjsLinearGradient1142&quot;)" stroke-linecap="round" class="Down"></path>
        <path d="M1380 135L1379 -13" stroke-width="6" stroke="url(&quot;#SvgjsLinearGradient1143&quot;)" stroke-linecap="round" class="Up"></path>
        <path d="M122 235L121 301" stroke-width="6" stroke="url(&quot;#SvgjsLinearGradient1142&quot;)" stroke-linecap="round" class="Down"></path>
        <path d="M670 32L669 -59" stroke-width="6" stroke="url(&quot;#SvgjsLinearGradient1143&quot;)" stroke-linecap="round" class="Up"></path>
        <path d="M973 226L972 98" stroke-width="10" stroke="url(&quot;#SvgjsLinearGradient1142&quot;)" stroke-linecap="round" class="Down"></path>
        <path d="M1311 66L1310 249" stroke-width="8" stroke="url(&quot;#SvgjsLinearGradient1142&quot;)" stroke-linecap="round" class="Down"></path>
        <path d="M1183 221L1182 312" stroke-width="10" stroke="url(&quot;#SvgjsLinearGradient1143&quot;)" stroke-linecap="round" class="Up"></path>
        <path d="M1920 21L1919 -158" stroke-width="6" stroke="url(&quot;#SvgjsLinearGradient1142&quot;)" stroke-linecap="round" class="Down"></path>
        <path d="M1257 218L1256 405" stroke-width="6" stroke="url(&quot;#SvgjsLinearGradient1143&quot;)" stroke-linecap="round" class="Up"></path>
        <path d="M1601 19L1600 168" stroke-width="6" stroke="url(&quot;#SvgjsLinearGradient1142&quot;)" stroke-linecap="round" class="Down"></path>
        <path d="M1971 21L1970 117" stroke-width="10" stroke="url(&quot;#SvgjsLinearGradient1142&quot;)" stroke-linecap="round" class="Down"></path>
        <path d="M606 170L605 247" stroke-width="8" stroke="url(&quot;#SvgjsLinearGradient1143&quot;)" stroke-linecap="round" class="Up"></path>
        <path d="M162 6L161 122" stroke-width="8" stroke="url(&quot;#SvgjsLinearGradient1143&quot;)" stroke-linecap="round" class="Up"></path>
        <path d="M1419 237L1418 81" stroke-width="8" stroke="url(&quot;#SvgjsLinearGradient1142&quot;)" stroke-linecap="round" class="Down"></path>
        <path d="M1852 98L1851 187" stroke-width="6" stroke="url(&quot;#SvgjsLinearGradient1143&quot;)" stroke-linecap="round" class="Up"></path>
        <path d="M494 54L493 195" stroke-width="10" stroke="url(&quot;#SvgjsLinearGradient1143&quot;)" stroke-linecap="round" class="Up"></path>
        <path d="M183 62L182 238" stroke-width="8" stroke="url(&quot;#SvgjsLinearGradient1143&quot;)" stroke-linecap="round" class="Up"></path>
        <path d="M1307 197L1306 97" stroke-width="6" stroke="url(&quot;#SvgjsLinearGradient1142&quot;)" stroke-linecap="round" class="Down"></path>
        <path d="M1779 11L1778 -158" stroke-width="10" stroke="url(&quot;#SvgjsLinearGradient1143&quot;)" stroke-linecap="round" class="Up"></path>
        <path d="M711 125L710 12" stroke-width="8" stroke="url(&quot;#SvgjsLinearGradient1142&quot;)" stroke-linecap="round" class="Down"></path>
        <path d="M1700 142L1699 239" stroke-width="8" stroke="url(&quot;#SvgjsLinearGradient1142&quot;)" stroke-linecap="round" class="Down"></path>
        <path d="M1311 240L1310 120" stroke-width="10" stroke="url(&quot;#SvgjsLinearGradient1143&quot;)" stroke-linecap="round" class="Up"></path>
        <path d="M1600 85L1599 -101" stroke-width="6" stroke="url(&quot;#SvgjsLinearGradient1143&quot;)" stroke-linecap="round" class="Up"></path>
        <path d="M1175 208L1174 389" stroke-width="6" stroke="url(&quot;#SvgjsLinearGradient1142&quot;)" stroke-linecap="round" class="Down"></path>
        <path d="M747 217L746 134" stroke-width="10" stroke="url(&quot;#SvgjsLinearGradient1143&quot;)" stroke-linecap="round" class="Up"></path>
        <path d="M1658 181L1657 265" stroke-width="10" stroke="url(&quot;#SvgjsLinearGradient1142&quot;)" stroke-linecap="round" class="Down"></path>
        <path d="M620 218L619 68" stroke-width="8" stroke="url(&quot;#SvgjsLinearGradient1143&quot;)" stroke-linecap="round" class="Up"></path>
        <path d="M1506 100L1505 -35" stroke-width="10" stroke="url(&quot;#SvgjsLinearGradient1143&quot;)" stroke-linecap="round" class="Up"></path>
        <path d="M385 9L384 135" stroke-width="8" stroke="url(&quot;#SvgjsLinearGradient1143&quot;)" stroke-linecap="round" class="Up"></path>
        <path d="M207 244L206 310" stroke-width="6" stroke="url(&quot;#SvgjsLinearGradient1142&quot;)" stroke-linecap="round" class="Down"></path>
        <path d="M860 43L859 -21" stroke-width="8" stroke="url(&quot;#SvgjsLinearGradient1142&quot;)" stroke-linecap="round" class="Down"></path>
        <path d="M238 22L237 -131" stroke-width="6" stroke="url(&quot;#SvgjsLinearGradient1142&quot;)" stroke-linecap="round" class="Down"></path>
        <path d="M1442 182L1441 308" stroke-width="8" stroke="url(&quot;#SvgjsLinearGradient1143&quot;)" stroke-linecap="round" class="Up"></path>
        <path d="M1604 84L1603 244" stroke-width="10" stroke="url(&quot;#SvgjsLinearGradient1142&quot;)" stroke-linecap="round" class="Down"></path>
        <path d="M1806 67L1805 183" stroke-width="6" stroke="url(&quot;#SvgjsLinearGradient1142&quot;)" stroke-linecap="round" class="Down"></path>
        <path d="M2 74L1 147" stroke-width="8" stroke="url(&quot;#SvgjsLinearGradient1142&quot;)" stroke-linecap="round" class="Down"></path>
    </g>
    <defs>
        <mask id="SvgjsMask1141">
            <rect width="1980" height="250" fill="#ffffff"></rect>
        </mask>
        <linearGradient x1="0%" y1="0%" x2="0%" y2="100%" id="SvgjsLinearGradient1142">
            <stop stop-color="rgba(243, 220, 215, 0)" offset="0"></stop>
            <stop stop-color="rgba(243, 220, 215, 1)" offset="1"></stop>
        </linearGradient>
        <linearGradient x1="0%" y1="100%" x2="0%" y2="0%" id="SvgjsLinearGradient1143">
            <stop stop-color="rgba(243, 220, 215, 0)" offset="0"></stop>
            <stop stop-color="rgba(243, 220, 215, 1)" offset="1"></stop>
        </linearGradient>
    </defs>
</svg>